# xmcd
#
# Track frame offsets:
#	150
#	833
#	17478
#	36576
#	51922
#	74554
#	94380
#	110830
#	129717
#	148635
#	177868
#	197816
#	219795
#	239140
#
# Disc length: 3403 seconds
# Revision: 0
# Processed by: cddbd v1.5.2PL0 Copyright (c) Steve Scherf et al.
# Submitted via: dBpowerAMP V12.0
#
DISCID=d00d490e
DTITLE=Various Artist - Love Vs. Money
DYEAR=2009
DGENRE=R&B
TTITLE0=The-Dream - Money Intro
TTITLE1=The-Dream - Rockin' That Shit
TTITLE2=The-Dream featuring Kanye West - Walkin' On The Moon
TTITLE3=The-Dream featuring Mariah Carey - My Love
TTITLE4=The-Dream - Put It Down
TTITLE5=The-Dream - Sweat It Out
TTITLE6=The-Dream - Take U Home 2 My Mama
TTITLE7=The-Dream - Love Vs. Money
TTITLE8=The-Dream - Love Vs. Money: Part 2
TTITLE9=The-Dream - Fancy
TTITLE10=The-Dream - Right Side Of My Brain
TTITLE11=The-Dream - Mr. Yeah
TTITLE12=The-Dream - Kelly's 12 Play
TTITLE13=The-Dream featuring Lil Jon - Let Me See The Booty
EXTD=
EXTT0=
EXTT1=
EXTT2=
EXTT3=
EXTT4=
EXTT5=
EXTT6=
EXTT7=
EXTT8=
EXTT9=
EXTT10=
EXTT11=
EXTT12=
EXTT13=
PLAYORDER=
